Coordinates
version=1
nRows=9
nColumns=24
inDegrees=yes

Units are S.I. units (second, meters, Newtons, ...)
Angles are in degrees.

endheader
time	pelvis_tilt	pelvis_list	pelvis_rotation	pelvis_tx	pelvis_ty	pelvis_tz	hip_flexion_r	hip_adduction_r	hip_rotation_r	knee_angle_r	ankle_angle_r	subtalar_angle_r	mtp_angle_r	hip_flexion_l	hip_adduction_l	hip_rotation_l	knee_angle_l	ankle_angle_l	subtalar_angle_l	mtp_angle_l	lumbar_extension	lumbar_bending	lumbar_rotation
     10.66000000	     45.51356223	     -4.57648680	     -0.89430830	      0.57448203	      1.08518994	     -0.34088095	     26.84716457	     -6.66147498	     -8.21479367	    -73.98594515	    -26.38677661	    -19.29567821	      0.00000000	     26.73938479	    -19.03978935	     -5.47230105	    -77.37426023	    -27.73515238	      3.53147437	      0.00000000	      0.00000000	      0.00000000	      0.00000000
     10.67000000	     45.49754043	     -4.57680855	     -0.90298467	      0.57451105	      1.08523561	     -0.34083368	     26.86926383	     -6.65182751	     -8.20710464	    -74.00667629	    -26.34425306	    -19.25000414	      0.00000000	     26.74067979	    -19.03929679	     -5.49944813	    -77.27870032	    -27.75847247	      3.51543928	      0.00000000	      0.00000000	      0.00000000	      0.00000000
     10.68000000	     45.48840960	     -4.57947504	     -0.90485610	      0.57452042	      1.08529527	     -0.34078074	     26.87673322	     -6.63624442	     -8.19417596	    -74.02671790	    -26.29679826	    -19.19620988	      0.00000000	     26.74110042	    -19.04179414	     -5.52556383	    -77.18085166	    -27.79246013	      3.49663142	      0.00000000	      0.00000000	      0.00000000	      0.00000000
     10.69000000	     45.48697266	     -4.58419588	     -0.90154505	      0.57452629	      1.08534591	     -0.34072520	     26.87265184	     -6.61743661	     -8.17868616	    -74.03856667	    -26.25096925	    -19.13972096	      0.00000000	     26.73992587	    -19.04521009	     -5.55010859	    -77.08595775	    -27.83137589	      3.47724270	      0.00000000	      0.00000000	      0.00000000	      0.00000000
     10.70000000	     45.49262652	     -4.58984835	     -0.89485024	      0.57453621	      1.08537214	     -0.34068440	     26.86024970	     -6.59728486	     -8.16296109	    -74.03663152	    -26.21280987	    -19.08629098	      0.00000000	     26.73667166	    -19.04731756	     -5.57284818	    -76.99801509	    -27.86849466	      3.46039927	      0.00000000	      0.00000000	      0.00000000	      0.00000000
     10.71000000	     45.50320379	     -4.59500312	     -0.88607942	      0.57454146	      1.08537646	     -0.34066662	     26.84085064	     -6.57652161	     -8.14781687	    -74.02029609	    -26.18637641	    -19.04088703	      0.00000000	     26.73211902	    -19.04659140	     -5.59363181	    -76.91814567	    -27.89783615	      3.44923921	      0.00000000	      0.00000000	      0.00000000	      0.00000000
     10.72000000	     45.51646997	     -4.59853088	     -0.87562350	      0.57453914	      1.08537585	     -0.34065734	     26.81483728	     -6.55526061	     -8.13287449	    -73.99316302	    -26.17297885	    -19.00666657	      0.00000000	     26.72799468	    -19.04264380	     -5.61225155	    -76.84470102	    -27.91558049	      3.44601934	      0.00000000	      0.00000000	      0.00000000	      0.00000000
     10.73000000	     45.53113561	     -4.60002969	     -0.86303848	      0.57453238	      1.08538554	     -0.34063715	     26.78322754	     -6.53378395	     -8.11778252	    -73.96041281	    -26.17124191	    -18.98439814	      0.00000000	     26.72584773	    -19.03597628	     -5.62842839	    -76.77482257	    -27.92070887	      3.45151456	      0.00000000	      0.00000000	      0.00000000	      0.00000000
     10.74000000	     45.54681012	     -4.60001018	     -0.84747373	      0.57452030	      1.08540568	     -0.34060278	     26.74812034	     -6.51303541	     -8.10324595	    -73.92651848	    -26.17781016	    -18.97251981	      0.00000000	     26.72629099	    -19.02725791	     -5.64199308	    -76.70618988	    -27.91477970	      3.46482582	      0.00000000	      0.00000000	      0.00000000	      0.00000000
